HIERARCHY
ROOT Hips
{
    OFFSET 0.000000 0.000000 0.000000
    CHANNELS 6 Xposition Yposition Zposition Zrotation Xrotation Yrotation
    JOINT Spine
    {
        OFFSET -0.000000 14.517291 0.000000
        CHANNELS 3 Zrotation Xrotation Yrotation
        JOINT Spine1
        {
            OFFSET -0.000000 37.558300 0.000000
            CHANNELS 3 Zrotation Xrotation Yrotation
            JOINT Neck
            {
                OFFSET -0.000000 37.404057 3.400369
                CHANNELS 3 Zrotation Xrotation Yrotation
                JOINT Head
                {
                    OFFSET -0.000000 24.785618 -3.540803
                    CHANNELS 3 Zrotation Xrotation Yrotation
                    End Site
                    {
                        OFFSET -0.000000 35.408028 0.000000
                    }
                }
            }
            JOINT LeftShoulder
            {
                OFFSET 6.992933 33.973492 -0.192664
                CHANNELS 3 Zrotation Xrotation Yrotation
                JOINT LeftArm
                {
                    OFFSET 21.527611 0.000000 0.000000
                    CHANNELS 3 Zrotation Xrotation Yrotation
                    JOINT LeftForeArm
                    {
                        OFFSET 56.353916 0.000000 0.000000
                        CHANNELS 3 Zrotation Xrotation Yrotation
                        JOINT LeftHand
                        {
                            OFFSET 47.774071 0.000000 0.000000
                            CHANNELS 3 Zrotation Xrotation Yrotation
                            End Site
                            {
                                OFFSET 26.556021 0.000000 0.000000
                            }
                        }
                    }
                }
            }
            JOINT RightShoulder
            {
                OFFSET -7.065357 33.973492 -0.192664
                CHANNELS 3 Zrotation Xrotation Yrotation
                JOINT RightArm
                {
                    OFFSET -21.527611 0.000000 0.000000
                    CHANNELS 3 Zrotation Xrotation Yrotation
                    JOINT RightForeArm
                    {
                        OFFSET -56.353916 0.000000 0.000000
                        CHANNELS 3 Zrotation Xrotation Yrotation
                        JOINT RightHand
                        {
                            OFFSET -47.774071 0.000000 0.000000
                            CHANNELS 3 Zrotation Xrotation Yrotation
                            End Site
                            {
                                OFFSET -26.556021 0.000000 0.000000
                            }
                        }
                    }
                }
            }
        }
    }
    JOINT LeftUpLeg
    {
        OFFSET 17.704014 0.000000 0.000000
        CHANNELS 3 Zrotation Xrotation Yrotation
        JOINT LeftLeg
        {
            OFFSET -0.000000 -81.181816 0.000000
            CHANNELS 3 Zrotation Xrotation Yrotation
            JOINT LeftFoot
            {
                OFFSET -0.000000 -62.821102 0.000000
                CHANNELS 3 Zrotation Xrotation Yrotation
                JOINT LeftToeBase
                {
                    OFFSET -0.000000 -11.507608 26.556021
                    CHANNELS 3 Zrotation Xrotation Yrotation
                    End Site
                    {
                        OFFSET -0.000000 0.000000 7.081605
                    }
                }
            }
        }
    }
    JOINT RightUpLeg
    {
        OFFSET -17.704014 0.000000 0.000000
        CHANNELS 3 Zrotation Xrotation Yrotation
        JOINT RightLeg
        {
            OFFSET -0.000000 -81.181816 0.000000
            CHANNELS 3 Zrotation Xrotation Yrotation
            JOINT RightFoot
            {
                OFFSET -0.000000 -62.821102 0.000000
                CHANNELS 3 Zrotation Xrotation Yrotation
                JOINT RightToeBase
                {
                    OFFSET -0.000000 -11.507608 26.556021
                    CHANNELS 3 Zrotation Xrotation Yrotation
                    End Site
                    {
                        OFFSET -0.000000 0.000000 7.081605
                    }
                }
            }
        }
    }
}
MOTION
Frames:    6
Frame Time:    0.008333
-29.968607    151.292038    -34.930141    0.271856    3.494548    24.512213    -3.438142    3.696204    8.544604    -2.082341    -1.622766    2.782597    -2.709336    5.891351    -13.413303    14.815640    -10.464828    -10.298940    1.702205    4.209893    -7.783180    -34.547874    11.623660    -60.661510    -4.993695    -29.333061    -124.409393    -7.367995    -36.544292    -13.910118    -0.876818    10.377506    -0.258468    39.556992    10.074205    48.574028    -48.287975    -41.923840    28.082354    17.157042    -27.324631    31.856720    -3.070714    -35.669765    -29.810617    -10.749939    22.335350    -24.629530    -11.485761    1.991600    31.690804    0.000000    0.000000    0.000000    3.901848    8.718790    -20.791426    1.852717    24.275736    -3.129200    0.157421    -31.157253    -8.577902    0.000000    0.000000    0.000000    
-29.977697    151.293457    -34.930012    0.277299    3.498281    24.537771    -3.435600    3.700067    8.551630    -2.084817    -1.627487    2.784805    -2.706368    5.905426    -13.420992    14.811042    -10.476824    -10.307186    1.699065    4.212630    -7.799550    -34.532967    11.631781    -60.661186    -4.991772    -29.361788    -124.424995    -7.350103    -36.573864    -13.876611    -0.883443    10.386667    -0.243763    39.557224    10.071022    48.607082    -48.295803    -41.725441    28.206610    17.064529    -27.045017    31.935228    -3.089081    -35.667606    -29.806389    -10.735309    22.326172    -24.654596    -11.492902    2.017256    31.679260    0.000000    0.000000    0.000000    3.900039    8.712035    -20.805874    1.861078    24.292631    -2.995361    0.052329    -31.159077    -8.759001    0.000000    0.000000    0.000000    
-29.996454    151.293457    -34.928127    0.276023    3.497887    24.569338    -3.432917    3.708030    8.554865    -2.080100    -1.630554    2.785850    -2.723270    5.900549    -13.428219    14.827242    -10.463453    -10.310936    1.692237    4.214848    -7.800276    -34.502937    11.641231    -60.668709    -4.973433    -29.398424    -124.421669    -7.383055    -36.573677    -13.911161    -0.893306    10.401287    -0.242424    39.553543    10.085367    48.654865    -48.336239    -41.553207    28.312181    17.058783    -26.775337    31.998545    -3.093396    -35.663044    -29.799107    -10.724893    22.309021    -24.683056    -11.474948    2.043920    31.654808    0.000000    0.000000    0.000000    3.915506    8.712263    -20.846424    1.851564    24.287859    -3.002746    0.072902    -31.159657    -8.732970    0.000000    0.000000    0.000000    
-30.014471    151.292068    -34.928368    0.274483    3.500872    24.600103    -3.437129    3.709960    8.554518    -2.069133    -1.630759    2.785827    -2.717521    5.885836    -13.431113    14.812074    -10.448971    -10.319489    1.689805    4.216144    -7.794678    -34.490082    11.651481    -60.681667    -5.001807    -29.395514    -124.436966    -7.646721    -36.579750    -14.118125    -0.901865    10.414863    -0.234514    39.564297    10.136247    48.690903    -48.464771    -41.388519    28.369953    17.081638    -26.504023    32.057148    -3.099983    -35.665367    -29.804068    -10.721905    22.294847    -24.687065    -11.485548    2.059591    31.641285    0.000000    0.000000    0.000000    3.930010    8.711552    -20.865004    1.851598    24.277460    -2.989592    0.066687    -31.155741    -8.757100    0.000000    0.000000    0.000000    
-30.031467    151.291840    -34.923969    0.274945    3.498087    24.633099    -3.440833    3.715663    8.554888    -2.055824    -1.634054    2.785971    -2.746660    5.883880    -13.439860    14.850163    -10.424518    -10.320080    1.679704    4.221195    -7.784948    -34.473396    11.657810    -60.695457    -4.992371    -29.406519    -124.434647    -7.667019    -36.572289    -14.131352    -0.915626    10.437300    -0.224640    39.545116    10.181904    48.747803    -48.653484    -41.148945    28.323441    17.066607    -26.169233    32.203163    -3.106380    -35.657127    -29.808041    -10.714316    22.278063    -24.691946    -11.486282    2.068093    31.615177    0.000000    0.000000    0.000000    3.942426    8.718115    -20.865152    1.865316    24.268299    -3.030362    0.071755    -31.150116    -8.746923    0.000000    0.000000    0.000000    
-30.049587    151.291138    -34.920177    0.270845    3.497637    24.664213    -3.438333    3.716164    8.560900    -2.051012    -1.634340    2.788074    -2.757536    5.871255    -13.451177    14.859508    -10.393674    -10.332304    1.682187    4.226820    -7.797428    -34.466846    11.659617    -60.695831    -4.996805    -29.424307    -124.450584    -7.664228    -36.598972    -14.119524    -0.918549    10.454631    -0.215146    39.541916    10.205019    48.786079    -48.800804    -40.915562    28.325804    17.015934    -25.850574    32.286808    -3.107210    -35.653919    -29.804237    -10.711195    22.261917    -24.692530    -11.495283    2.079607    31.601406    0.000000    0.000000    0.000000    3.962798    8.723809    -20.881441    1.867641    24.248875    -3.030869    0.052344    -31.143229    -8.762693    0.000000    0.000000    0.000000    
